<svg id="Layer_1" data-name="Layer 1" xmlns="http://www.w3.org/2000/svg" xmlns:xlink="http://www.w3.org/1999/xlink" viewBox="0 0 108.71 115.5"><defs><style>.cls-1{isolation:isolate;}.cls-2{fill:url(#linear-gradient);}.cls-3{fill:url(#linear-gradient-2);}.cls-4{fill:url(#linear-gradient-3);}</style><linearGradient id="linear-gradient" x1="72.26" y1="26.82" x2="72.26" y2="83.66" gradientTransform="translate(37.98 -29.21) rotate(30.66)" gradientUnits="userSpaceOnUse"><stop offset="0.01" stop-color="#424041"/><stop offset="0.29" stop-color="#3a3939"/><stop offset="0.72" stop-color="#252425"/><stop offset="1" stop-color="#141414"/></linearGradient><linearGradient id="linear-gradient-2" x1="63.27" y1="114.97" x2="129.74" y2="75.81" gradientUnits="userSpaceOnUse"><stop offset="0.01" stop-color="#424041"/><stop offset="0.02" stop-color="#3c3a3b"/><stop offset="0.07" stop-color="#2a2929"/><stop offset="0.12" stop-color="#1d1d1d"/><stop offset="0.2" stop-color="#161616"/><stop offset="0.38" stop-color="#141414"/><stop offset="0.57" stop-color="#181818"/><stop offset="0.76" stop-color="#232323"/><stop offset="0.94" stop-color="#363536"/><stop offset="1" stop-color="#3e3d3e"/></linearGradient><linearGradient id="linear-gradient-3" x1="68.72" y1="128.9" x2="134.71" y2="85.22" gradientUnits="userSpaceOnUse"><stop offset="0" stop-color="#d18f5d"/><stop offset="0.03" stop-color="#bb794a"/><stop offset="0.09" stop-color="#a25f35"/><stop offset="0.14" stop-color="#904d25"/><stop offset="0.19" stop-color="#85421c"/><stop offset="0.25" stop-color="#823e19"/><stop offset="0.42" stop-color="#985028"/><stop offset="0.69" stop-color="#c47445"/><stop offset="0.78" stop-color="#c57747"/><stop offset="0.83" stop-color="#c97f4f"/><stop offset="0.88" stop-color="#d18e5c"/><stop offset="0.88" stop-color="#d18f5d"/><stop offset="0.93" stop-color="#dfae78"/><stop offset="1" stop-color="#fae6a9"/></linearGradient></defs><g class="cls-1"><ellipse class="cls-2" cx="72.26" cy="54.68" rx="38.35" ry="14.14" transform="translate(-56.27 12.84) rotate(-30.66)"/><path class="cls-3" d="M147.17,107c0-.24-.06-.48-.1-.71a5.12,5.12,0,0,0-.19-.67,4.8,4.8,0,0,0-.27-.66l-.18-.34L105.26,35.13a3.72,3.72,0,0,1,.19.34c.1.21.19.43.27.65a4.84,4.84,0,0,1,.18.68,5.27,5.27,0,0,1,.11.71c0,.24,0,.48,0,.74s0,.52-.05.78a8.38,8.38,0,0,1-.13.83,7.77,7.77,0,0,1-.21.9c-.09.32-.19.64-.31,1s-.26.69-.41,1.05h0c-.17.39-.35.78-.56,1.18s-.47.88-.73,1.33-.63,1-1,1.54-.89,1.27-1.39,1.91c-.65.83-1.36,1.67-2.11,2.51-1,1.15-2.15,2.29-3.36,3.44C94,56.36,92.1,58,90,59.63c-.79.62-1.59,1.23-2.41,1.83-.55.4-1.09.79-1.65,1.18s-1,.68-1.47,1l-1.31.87-1.32.84c-.43.28-.86.55-1.3.81L79.24,67l-1.38.8-1.43.79c-.48.27-1,.53-1.47.79s-1,.53-1.51.78-1,.52-1.54.76-1,.51-1.58.75l-1.61.73-1.66.7-1.73.7-1.64.62-.15,0-1.92.67c-.7.23-1.39.44-2.06.64s-1.54.44-2.28.63c-1,.24-1.88.45-2.77.62-7.84,1.54-13.31.48-15.25-2.79l41.17,69.45c1.93,3.26,7.4,4.32,15.25,2.79.89-.18,1.81-.38,2.76-.62q1.11-.28,2.28-.63c.67-.2,1.36-.42,2.06-.65s1.27-.43,1.92-.67l.15,0c.54-.2,1.09-.4,1.64-.62l1.73-.69,1.66-.71c.54-.23,1.07-.48,1.61-.72l1.58-.75,1.54-.76,1.51-.78,1.48-.79,1.42-.8,1.38-.8,1.34-.8,1.31-.81c.44-.28.88-.56,1.31-.85s.88-.57,1.31-.87,1-.67,1.47-1l1.65-1.17c.82-.61,1.62-1.22,2.41-1.83,2.06-1.62,4-3.27,5.75-4.94,1.2-1.14,2.32-2.29,3.35-3.43.76-.84,1.46-1.68,2.11-2.52.5-.64,1-1.27,1.39-1.91s.69-1,1-1.54.51-.89.73-1.33.39-.79.56-1.18h0c.15-.36.29-.7.41-1s.23-.66.31-1,.16-.61.22-.9.09-.56.12-.83a7.13,7.13,0,0,0,0-.79C147.2,107.44,147.19,107.19,147.17,107Z" transform="translate(-38.49 -31.65)"/><path class="cls-4" d="M146.08,112.23c-4.73,10.89-23.2,25-41.23,31.61-12.7,4.62-21.8,4.25-24.42-.17L65.79,119c2.62,4.43,11.72,4.8,24.42.18,18-6.56,36.5-20.72,41.24-31.61,1.4-3.22,1.44-5.8.34-7.66l14.64,24.69C147.53,106.43,147.49,109,146.08,112.23Zm-63.89-6.61c18-6.56,36.5-20.72,41.24-31.61,1.4-3.22,1.44-5.8.34-7.66l-4.76-8c1.1,1.85,1.06,4.43-.35,7.65-4.73,10.89-23.2,25-41.23,31.61-12.7,4.62-21.8,4.25-24.42-.17l4.76,8C60.4,109.87,69.5,110.24,82.19,105.62Z" transform="translate(-38.49 -31.65)"/></g></svg>